<svg width="315" height="107" viewBox="0 0 315 107" fill="none" xmlns="http://www.w3.org/2000/svg">
    <path d="M11.008 12.376V8.568H2.56V30.936H11.008V27.128H6.368V12.376H11.008ZM21.8275 8.568C18.2115 8.6 15.2995 11.512 15.2995 15.128V30.968H19.1075V21.688H21.8595C23.3635 21.688 24.6115 22.904 24.6115 24.44C24.6115 28.056 27.5555 30.968 31.1715 30.968H37.6675V27.16H31.1715C29.6355 27.16 28.4195 25.944 28.4195 24.44C28.4195 23.48 28.1955 22.552 27.8115 21.688H37.6675V8.568H21.8275ZM19.0435 15.128C19.0435 13.624 20.2915 12.376 21.7955 12.376H33.8275V17.88H19.0435V15.128ZM48.6347 8.632C45.0187 8.632 42.1067 11.576 42.1067 15.16V31.032H45.9147V21.72H60.6667V31.032H64.4747V8.632H48.6347ZM48.6347 12.44H57.9147C59.4507 12.44 60.6667 13.656 60.6667 15.16V17.912H45.9147V15.16C45.9147 13.656 47.1307 12.44 48.6347 12.44ZM87.724 8.568V27.16H82.252V8.568H78.444V27.16H75.692C74.188 27.16 72.972 25.944 72.972 24.44V8.568H69.164V24.44C69.164 28.056 72.076 31 75.692 31H91.532V8.568H87.724ZM96.0292 8.568V12.376H100.669V27.128H96.0292V30.936H104.477V8.568H96.0292Z" fill="white"/>
    <rect y="47" width="263" height="60" rx="16" fill="#860404"/>
    <rect x="279.715" y="107" width="10.715" height="60" rx="5.35748" transform="rotate(-180 279.715 107)" fill="#860404"/>
    <rect opacity="0.75" x="297.023" y="107" width="10.715" height="60" rx="5.35748" transform="rotate(-180 297.023 107)" fill="#860404"/>
    <rect opacity="0.5" x="314.332" y="107" width="10.715" height="60" rx="5.35748" transform="rotate(-180 314.332 107)" fill="#860404"/>
    <path d="M14.912 60.448V66.16H28.832V94.048H34.544V70.24C34.544 67.984 36.368 66.16 38.624 66.16H48.464V60.448H14.912ZM61.8544 60.448C56.4304 60.448 52.0624 64.816 52.0624 70.24V94.048H75.7744C81.1984 94.048 85.6144 89.632 85.6144 84.208V60.448H61.8544ZM57.6784 70.24C57.6784 67.984 59.5024 66.16 61.8064 66.16H75.7264C77.9824 66.16 79.8064 67.984 79.8064 70.24V84.16C79.8064 86.464 77.9824 88.288 75.7264 88.288H61.8064C59.5024 88.288 57.6784 86.464 57.6784 84.16V70.24ZM120.654 60.352V70.192C120.654 72.448 118.83 74.32 116.574 74.32H98.5259V60.352H92.8139V93.952H98.5259V80.032H102.654C104.91 80.032 106.734 81.856 106.734 84.16C106.782 89.584 111.15 93.952 116.574 93.952H126.366V88.24H116.574C114.318 88.24 112.446 86.416 112.446 84.16C112.446 82.72 112.158 81.328 111.582 80.032H126.366V60.352H120.654ZM143.016 60.448C137.592 60.448 133.224 64.864 133.224 70.24V94.048H166.776V88.336H143.016C141.912 88.288 140.856 87.856 140.088 87.088C139.32 86.32 138.888 85.264 138.936 84.16V80.08H166.776V74.368H138.936V70.24C138.936 67.984 140.76 66.16 143.016 66.16H166.776V60.448H143.016ZM201.347 60.352V88.24H197.267C194.963 88.24 193.139 86.416 193.139 84.16V70.192C193.139 64.768 188.723 60.4 183.299 60.352H173.507V93.952H179.219V66.064H183.299C185.603 66.064 187.427 67.936 187.427 70.192V84.16C187.427 89.584 191.843 94 197.267 94H207.059V60.352H201.347ZM223.699 60.352C218.275 60.4 213.907 64.768 213.907 70.192V80.032H237.619C239.923 80.032 241.747 81.856 241.747 84.16V88.24H213.907V93.952H247.459V84.16C247.459 78.736 243.043 74.368 237.619 74.368H219.619V70.192C219.619 67.936 221.443 66.112 223.699 66.064H247.459V60.352H223.699Z" fill="white"/>
    </svg>
    