<?xml version="1.0" standalone="no"?>
<!DOCTYPE svg PUBLIC "-//W3C//DTD SVG 20010904//EN"
 "http://www.w3.org/TR/2001/REC-SVG-20010904/DTD/svg10.dtd">
<svg version="1.0" xmlns="http://www.w3.org/2000/svg"
 width="680.000000pt" height="580.000000pt" viewBox="0 0 680.000000 580.000000"
 preserveAspectRatio="xMidYMid meet">

<g transform="translate(0.000000,580.000000) scale(0.100000,-0.100000)"
fill="#000000" stroke="none">
<path d="M3305 5673 c-497 -41 -935 -185 -1333 -437 -864 -548 -1372 -1537
-1311 -2551 23 -387 110 -721 281 -1077 l61 -128 54 0 c29 0 53 -3 53 -7 0 -3
-5 -35 -11 -70 -11 -62 -11 -64 22 -114 38 -60 41 -57 58 66 18 130 20 135 45
135 44 0 45 13 7 83 -34 60 -40 66 -52 51 -17 -20 -55 -35 -73 -28 -17 7 -106
139 -106 158 0 8 21 32 46 54 l47 40 -46 143 c-57 180 -82 276 -107 423 -70
413 -32 870 108 1276 132 382 322 689 602 971 396 399 866 642 1436 741 176
31 618 33 789 5 566 -94 1054 -339 1440 -722 437 -433 719 -1045 763 -1655 9
-124 8 -338 -2 -415 -3 -22 -8 -62 -12 -90 -22 -176 -87 -457 -134 -574 -11
-30 -19 -55 -18 -57 2 -1 26 24 53 57 52 63 60 66 131 48 52 -13 55 -28 14
-62 -35 -30 -37 -37 -10 -37 11 0 20 -4 20 -10 0 -5 7 -7 15 -4 8 4 15 1 15
-6 0 -6 -5 -8 -12 -4 -7 4 -8 3 -4 -4 7 -11 -202 -187 -212 -178 -2 3 15 36
39 73 23 37 41 70 40 73 -1 2 3 6 11 8 9 2 8 0 -2 -7 -11 -8 -12 -11 -2 -11
10 0 7 -11 -9 -36 -15 -26 -18 -34 -7 -28 26 15 127 99 128 105 0 4 -16 10
-35 13 -19 4 -35 10 -35 14 0 3 16 23 36 43 l36 37 -47 8 -48 7 -53 -59 -52
-59 36 -11 c47 -14 26 -26 -22 -13 -21 6 -39 9 -41 7 -1 -2 -21 -45 -43 -96
-23 -51 -62 -129 -87 -173 -25 -45 -45 -84 -45 -89 0 -4 35 -11 77 -16 l78 -9
8 -42 c9 -46 33 -62 53 -36 7 10 48 87 91 170 76 151 98 178 127 154 15 -13
26 -4 26 21 0 13 -8 18 -30 18 -16 0 -30 1 -30 3 0 2 14 41 31 88 73 198 127
420 161 659 17 123 16 561 -1 690 -54 403 -196 801 -406 1140 -146 236 -386
509 -603 688 -513 422 -1175 658 -1822 650 -74 -1 -153 -3 -175 -5z"/>
<path d="M2877 4013 c-4 -3 -7 -111 -7 -240 l0 -233 245 0 245 0 0 135 0 136
-112 -3 -113 -3 -6 -35 c-4 -23 -7 -27 -8 -12 -1 30 -26 23 -25 -6 0 -13 -7
-24 -18 -28 -24 -7 -23 -31 2 -44 15 -8 20 -21 20 -55 l0 -45 -100 0 -100 0 0
95 c0 88 1 95 20 95 19 0 20 7 20 95 l0 95 185 0 c192 0 235 8 235 42 0 17
-14 18 -238 18 -131 0 -242 -3 -245 -7z m319 -403 c62 0 64 1 64 25 0 22 4 25
35 25 34 0 35 -1 35 -40 l0 -40 -105 0 -105 0 2 48 c1 36 2 39 5 15 l4 -33 65
0z"/>
<path d="M3724 3995 c-4 -10 -1 -21 7 -26 8 -5 91 -9 186 -9 94 0 178 -3 187
-6 12 -5 16 -21 16 -70 0 -50 4 -66 16 -71 25 -10 34 16 34 105 l0 82 -174 0
c-95 0 -194 3 -219 6 -39 6 -48 4 -53 -11z"/>
<path d="M1726 3864 c-84 -43 -88 -46 -72 -63 22 -25 56 -17 139 32 45 26 67
45 67 58 0 29 -35 22 -134 -27z"/>
<path d="M1832 3803 c-24 -25 -42 -46 -40 -47 2 -1 24 -14 49 -29 l47 -27 63
34 c35 19 64 38 66 42 3 11 -110 74 -129 73 -7 0 -32 -21 -56 -46z"/>
<path d="M5111 3813 l-53 -35 58 -39 58 -38 31 20 c16 11 40 25 53 31 30 15
28 23 -11 46 -19 11 -45 26 -58 35 -23 14 -27 13 -78 -20z"/>
<path d="M3700 3675 l0 -135 250 0 251 0 -3 117 c-3 102 -5 118 -20 121 -15 3
-18 -8 -20 -95 l-3 -98 -87 -3 -88 -3 0 49 c0 40 4 52 23 65 l22 15 -25 20
c-14 12 -33 19 -42 16 -15 -4 -18 1 -18 30 l0 35 -120 0 -120 1 0 -135z m260
-50 l0 -45 -111 0 c-97 0 -110 2 -105 16 3 9 6 25 6 37 0 18 6 22 33 22 23 0
33 -5 37 -20 5 -17 14 -20 60 -20 53 0 55 1 58 28 5 44 22 31 22 -18z"/>
<path d="M1810 2817 l0 -605 21 -5 c20 -5 21 -11 17 -107 -2 -80 -1 -97 9 -84
7 10 19 14 28 10 21 -8 11 -60 -17 -88 -20 -20 -20 -20 2 -43 l21 -23 -30 -61
c-17 -34 -29 -61 -26 -61 2 0 19 28 36 62 23 45 30 71 27 97 -3 20 1 45 8 56
7 11 16 70 21 130 8 104 9 110 31 113 l22 3 0 559 c0 487 2 559 15 564 8 3 15
14 15 25 0 14 -5 19 -15 15 -11 -4 -15 1 -15 17 0 23 -3 24 -85 27 l-85 3 0
-604z"/>
<path d="M5118 2698 c1 -354 3 -690 5 -746 l2 -104 130 117 c167 149 275 231
325 246 22 7 39 17 37 23 -6 18 -54 18 -89 0 -40 -21 -251 -189 -292 -233 -17
-17 -33 -31 -38 -31 -4 0 -8 302 -8 670 0 589 -2 670 -15 670 -8 0 -15 -7 -15
-15 0 -8 -4 -15 -10 -15 -5 0 -10 6 -10 13 0 7 -6 21 -12 30 -11 14 -12 -109
-10 -625z"/>
<path d="M1237 3031 c-111 -70 -144 -97 -132 -109 7 -7 41 8 108 49 54 32 100
59 103 59 3 0 65 -39 139 -86 l134 -86 3 -116 c2 -81 7 -117 16 -120 9 -3 12
28 12 131 l0 135 -82 48 c-46 26 -115 69 -154 95 l-72 48 -75 -48z"/>
<path d="M4776 2997 c-3 -12 -6 -106 -6 -208 0 -154 3 -189 15 -199 13 -11 15
13 15 203 0 197 -8 264 -24 204z"/>
<path d="M1248 2864 c-32 -20 -58 -39 -58 -42 0 -4 26 -22 56 -40 l56 -32 65
36 65 36 -58 39 c-33 21 -61 39 -64 39 -3 0 -31 -17 -62 -36z"/>
<path d="M5705 2890 c-4 -6 -24 -19 -46 -30 -21 -11 -39 -24 -39 -28 1 -13 99
-72 121 -72 17 0 60 25 103 61 9 8 -97 79 -119 79 -7 0 -17 -5 -20 -10z"/>
<path d="M2655 2600 l-450 -238 -3 -270 -2 -270 25 -4 c13 -3 27 -3 30 0 3 3
5 119 5 259 0 139 3 253 8 253 4 0 72 -36 150 -80 142 -79 164 -88 190 -71 15
9 -113 90 -230 147 -31 15 -55 31 -52 36 3 5 51 31 107 59 56 28 131 68 167
89 144 84 176 101 193 107 9 3 17 9 17 14 0 5 9 9 20 9 11 0 20 3 20 8 0 4 21
17 48 30 26 13 65 33 87 46 22 12 63 35 90 50 65 35 71 42 49 54 -15 8 -107
-37 -469 -228z"/>
<path d="M3905 2819 c-28 -20 -29 -21 -5 -15 16 3 31 -1 45 -13 11 -11 97 -58
190 -106 94 -48 215 -113 270 -145 55 -32 153 -84 218 -116 64 -32 117 -61
117 -64 0 -3 -66 -39 -147 -81 -81 -41 -149 -81 -151 -87 -2 -6 6 -16 17 -22
18 -9 37 -2 123 48 101 58 203 112 212 112 3 0 2 -115 -1 -255 l-6 -255 38 0
38 0 -7 268 c-5 184 -11 270 -19 278 -10 10 -892 474 -899 474 -2 0 -16 -10
-33 -21z"/>
<path d="M960 2480 c0 -5 5 -10 11 -10 5 0 7 5 4 10 -3 6 -8 10 -11 10 -2 0
-4 -4 -4 -10z"/>
<path d="M2040 2125 c0 -312 1 -325 19 -325 18 0 19 11 22 163 2 89 2 231 1
315 -4 138 -6 153 -23 162 -19 10 -19 2 -19 -315z"/>
<path d="M4992 2438 c-9 -9 -12 -103 -12 -335 0 -312 1 -323 20 -333 20 -11
20 -8 20 329 0 187 -4 342 -8 345 -5 3 -14 0 -20 -6z"/>
<path d="M1192 2298 c3 -86 5 -102 18 -99 8 3 44 14 80 26 l65 22 3 62 c2 33
-1 61 -5 61 -5 0 -19 -7 -31 -16 -21 -14 -26 -14 -72 15 -28 17 -53 31 -56 31
-2 0 -3 -46 -2 -102z"/>
<path d="M5791 2364 l-55 -34 -21 20 c-12 11 -24 20 -28 20 -4 0 -7 -31 -7
-70 l0 -70 45 0 c25 0 62 -7 82 -15 20 -8 38 -14 40 -11 2 2 2 46 1 99 l-3 96
-54 -35z"/>
<path d="M1435 2240 c4 -6 33 -24 65 -40 58 -29 130 -85 223 -172 38 -36 53
-44 76 -40 l28 4 -51 47 c-73 68 -211 178 -245 196 -34 17 -106 21 -96 5z"/>
<path d="M1865 1995 c-5 -11 -15 -28 -23 -37 -9 -11 -11 -18 -4 -18 16 0 45
47 39 62 -3 9 -7 6 -12 -7z"/>
<path d="M1712 1938 c-30 -44 -60 -97 -49 -87 11 9 87 129 82 129 -2 0 -17
-19 -33 -42z"/>
<path d="M1790 1971 c0 -5 6 -14 14 -20 11 -9 15 -8 20 5 9 23 8 24 -14 24
-11 0 -20 -4 -20 -9z"/>
<path d="M1912 1890 c0 -22 3 -42 9 -45 5 -4 9 14 9 39 0 25 -4 46 -9 46 -5 0
-9 -18 -9 -40z"/>
<path d="M1815 1879 c-4 -6 -5 -12 -2 -15 2 -3 7 2 10 11 7 17 1 20 -8 4z"/>
<path d="M1725 1814 c-9 -15 -12 -23 -6 -20 11 7 35 46 28 46 -3 0 -12 -12
-22 -26z"/>
<path d="M1062 1800 c-23 -17 -42 -38 -42 -47 0 -19 52 -103 80 -128 17 -15
24 -16 45 -7 33 15 40 35 25 72 -10 25 -17 29 -46 26 -44 -3 -61 15 -46 49 7
14 18 25 27 25 17 0 19 9 7 28 -6 9 -19 5 -50 -18z"/>
<path d="M1760 1789 c-7 -11 -10 -23 -7 -25 2 -2 9 7 15 21 14 30 7 33 -8 4z"/>
<path d="M1098 1773 c6 -2 18 -2 25 0 6 3 1 5 -13 5 -14 0 -19 -2 -12 -5z"/>
<path d="M1080 1741 c0 -8 3 -12 6 -8 3 3 17 2 30 -3 15 -6 26 -5 30 2 4 7 3
8 -4 4 -7 -4 -12 -1 -12 8 0 11 -8 15 -25 14 -14 -1 -25 -9 -25 -17z"/>
<path d="M5940 1719 c0 -5 5 -7 10 -4 6 3 10 8 10 11 0 2 -4 4 -10 4 -5 0 -10
-5 -10 -11z"/>
<path d="M1397 1258 c-3 -13 -9 -56 -13 -95 l-7 -73 79 1 c44 0 87 4 97 8 18
6 18 8 2 21 -10 8 -44 47 -77 87 -32 40 -63 73 -68 73 -4 0 -10 -10 -13 -22z"/>
</g>
</svg>
