<svg width="375" height="140" viewBox="0 0 375 140" fill="none" xmlns="http://www.w3.org/2000/svg">
<path d="M16.1034 15.856C9.77543 15.856 4.67943 21.008 4.67943 27.28V55.056H11.3434V38.76H37.1594V55.056H43.8234V15.856H16.1034ZM16.1034 22.52H32.3434C35.0314 22.52 37.1594 24.648 37.1594 27.28V32.096H11.3434V27.28C11.3434 24.648 13.4714 22.52 16.1034 22.52ZM80.2536 15.688H52.5896V54.888H80.2536C86.5816 54.888 91.7336 49.736 91.7336 43.408V27.168C91.7336 20.84 86.5816 15.688 80.2536 15.688ZM59.2536 22.352H80.2536C82.9416 22.352 85.0696 24.48 85.0696 27.168V43.408C85.0696 46.04 82.9416 48.224 80.2536 48.224H64.0136C61.3816 48.224 59.2536 46.04 59.2536 43.408V22.352ZM128.845 15.856V48.392H115.909C113.277 48.392 111.093 46.208 111.093 43.576V27.392C111.093 21.064 105.997 15.912 99.669 15.912H96.365V22.576H99.669C102.301 22.576 104.429 24.76 104.429 27.392V43.52C104.485 49.848 109.581 55 115.909 55H135.509V15.856H128.845ZM155.378 15.856C149.05 15.856 143.954 21.008 143.954 27.28V55.056H150.618V38.76H176.434V55.056H183.098V15.856H155.378ZM155.378 22.52H171.618C174.306 22.52 176.434 24.648 176.434 27.28V32.096H150.618V27.28C150.618 24.648 152.746 22.52 155.378 22.52ZM224.452 15.744V48.28H219.692C217.004 48.28 214.876 46.152 214.876 43.52V27.224C214.876 20.896 209.724 15.8 203.396 15.744H191.972V54.944H198.636V22.408H203.396C206.084 22.408 208.212 24.592 208.212 27.224V43.52C208.212 49.848 213.364 55 219.692 55H231.116V15.744H224.452ZM251.016 15.856C244.688 15.856 239.592 21.008 239.592 27.28V55.056H278.736V48.392H251.016C249.728 48.336 248.496 47.832 247.6 46.936C246.704 46.04 246.2 44.808 246.256 43.52V27.28C246.256 24.648 248.384 22.52 251.016 22.52H278.736V15.856H251.016ZM296.401 15.856C290.073 15.856 284.977 21.008 284.977 27.28V55.056H324.121V48.392H296.401C295.113 48.336 293.881 47.832 292.985 46.936C292.089 46.04 291.585 44.808 291.641 43.52V38.76H324.121V32.096H291.641V27.28C291.641 24.648 293.769 22.52 296.401 22.52H324.121V15.856H296.401ZM359.731 15.688H332.067V54.888H359.731C366.059 54.888 371.211 49.736 371.211 43.408V27.168C371.211 20.84 366.059 15.688 359.731 15.688ZM338.731 22.352H359.731C362.419 22.352 364.547 24.48 364.547 27.168V43.408C364.547 46.04 362.419 48.224 359.731 48.224H343.491C340.859 48.224 338.731 46.04 338.731 43.408V22.352Z" fill="white"/>
<rect x="115" y="70" width="260" height="70" rx="16" fill="#056289"/>
<rect x="94" y="70" width="13" height="70" rx="6.5" fill="#056289"/>
<rect opacity="0.75" x="73" y="70" width="13" height="70" rx="6.5" fill="#056289"/>
<rect opacity="0.5" x="52" y="70" width="13" height="70" rx="6.5" fill="#056289"/>
<path d="M171.825 85.856C165.497 85.856 160.401 91.008 160.401 97.28V125.056H167.065V108.76H192.881V125.056H199.545V85.856H171.825ZM171.825 92.52H188.065C190.753 92.52 192.881 94.648 192.881 97.28V102.096H167.065V97.28C167.065 94.648 169.193 92.52 171.825 92.52ZM219.399 85.856C213.071 85.856 207.975 90.952 207.975 97.28V125.056H214.639V108.76H247.119V85.856H219.399ZM219.399 92.52H240.455V102.096H214.639V97.28C214.639 94.648 216.767 92.52 219.399 92.52ZM265.55 85.856C259.222 85.856 254.126 91.008 254.126 97.28V125.056H293.27V118.392H265.55C264.262 118.336 263.03 117.832 262.134 116.936C261.238 116.04 260.734 114.808 260.79 113.52V108.76H293.27V102.096H260.79V97.28C260.79 94.648 262.918 92.52 265.55 92.52H293.27V85.856H265.55ZM311.8 85.744C305.472 85.8 300.376 90.896 300.376 97.224V108.704H328.04C330.728 108.704 332.856 110.832 332.856 113.52V118.28H300.376V124.944H339.52V113.52C339.52 107.192 334.368 102.096 328.04 102.096H307.04V97.224C307.04 94.592 309.168 92.464 311.8 92.408H339.52V85.744H311.8Z" fill="white"/>
</svg>
