<svg width="527" height="60" viewBox="0 0 527 60" fill="none" xmlns="http://www.w3.org/2000/svg">
    <rect width="458" height="60" rx="16" fill="#FF6666"/>
    <rect x="481" y="60" width="15" height="60" rx="7.5" transform="rotate(-180 481 60)" fill="#FF6666"/>
    <rect opacity="0.75" x="504" y="60" width="15" height="60" rx="7.5" transform="rotate(-180 504 60)" fill="#FF6666"/>
    <rect opacity="0.5" x="527" y="60" width="15" height="60" rx="7.5" transform="rotate(-180 527 60)" fill="#FF6666"/>
    <path d="M37.248 13.448C31.872 13.448 27.504 17.864 27.504 23.24V47.048H61.056V37.16C61.056 34.568 60 32.024 58.128 30.2C60 28.376 61.056 25.88 61.056 23.24V13.448H37.248ZM51.216 27.368H33.216V23.24C33.216 20.984 35.04 19.16 37.296 19.16H55.344V23.288C55.344 24.344 54.912 25.4 54.144 26.168C53.328 26.936 52.32 27.368 51.216 27.368ZM33.216 33.08H51.216C53.472 33.08 55.296 34.904 55.344 37.16V41.288H37.248C34.992 41.288 33.216 39.416 33.216 37.16V33.08ZM77.7126 13.448C72.2886 13.448 67.9206 17.864 67.9206 23.24V47.048H73.6326V33.08H95.7606V47.048H101.473V13.448H77.7126ZM77.7126 19.16H91.6326C93.9366 19.16 95.7606 20.984 95.7606 23.24V27.368H73.6326V23.24C73.6326 20.984 75.4566 19.16 77.7126 19.16ZM106.027 13.448V19.16H119.947V47.048H125.659V23.24C125.659 20.984 127.483 19.16 129.739 19.16H139.579V13.448H106.027ZM141.24 13.448V19.16H155.16V47.048H160.872V23.24C160.872 20.984 162.696 19.16 164.952 19.16H174.792V13.448H141.24ZM189.174 41.336C186.918 41.336 185.094 39.464 185.094 37.208V13.448H179.382V47.048H212.934V41.336H189.174ZM227.004 13.448C221.58 13.448 217.212 17.864 217.212 23.24V47.048H250.764V41.336H227.004C225.9 41.288 224.844 40.856 224.076 40.088C223.308 39.32 222.876 38.264 222.924 37.16V33.08H250.764V27.368H222.924V23.24C222.924 20.984 224.748 19.16 227.004 19.16H250.764V13.448H227.004ZM285.244 13.448C279.82 13.448 275.452 17.816 275.452 23.24V47.048H309.004V27.368H289.276V33.08H303.292V41.336H285.196C282.94 41.288 281.116 39.416 281.164 37.16V23.24C281.164 20.984 282.988 19.16 285.244 19.16H309.004V13.448H285.244ZM325.567 13.448C320.143 13.448 315.775 17.864 315.775 23.24V47.048H321.487V33.08H343.615V47.048H349.327V13.448H325.567ZM325.567 19.16H339.487C341.791 19.16 343.615 20.984 343.615 23.24V27.368H321.487V23.24C321.487 20.984 323.311 19.16 325.567 19.16ZM380.568 13.352H356.808V46.952H362.52V19.064H370.728V46.952H376.44V19.064H380.568C382.824 19.064 384.648 20.936 384.648 23.192V46.952H390.36V23.192C390.36 17.768 385.992 13.4 380.568 13.352ZM406.962 13.448C401.538 13.448 397.17 17.864 397.17 23.24V47.048H430.722V41.336H406.962C405.858 41.288 404.802 40.856 404.034 40.088C403.266 39.32 402.834 38.264 402.882 37.16V33.08H430.722V27.368H402.882V23.24C402.882 20.984 404.706 19.16 406.962 19.16H430.722V13.448H406.962Z" fill="white"/>
    </svg>
    