<svg width="506" height="35" viewBox="0 0 506 35" fill="none" xmlns="http://www.w3.org/2000/svg">
<path d="M10.4741 0.351998C5.05013 0.399998 0.682131 4.768 0.682131 10.192V33.952H6.39413V20.032H10.5221C12.7781 20.032 14.6501 21.856 14.6501 24.16C14.6501 29.584 19.0661 33.952 24.4901 33.952H34.2341V28.24H24.4901C22.1861 28.24 20.3621 26.416 20.3621 24.16C20.3621 22.72 20.0261 21.328 19.4501 20.032H34.2341V0.351998H10.4741ZM6.29813 10.192C6.29813 7.936 8.17013 6.064 10.4261 6.064H28.4741V14.32H6.29813V10.192ZM50.621 0.447997C45.197 0.447997 40.829 4.864 40.829 10.24V34.048H74.381V28.336H50.621C49.517 28.288 48.461 27.856 47.693 27.088C46.925 26.32 46.493 25.264 46.541 24.16V20.08H74.381V14.368H46.541V10.24C46.541 7.984 48.365 6.16 50.621 6.16H74.381V0.447997H50.621ZM104.649 0.303999H80.9369V33.904H104.649C110.073 33.904 114.489 29.488 114.489 24.064V10.144C114.489 4.72 110.073 0.303999 104.649 0.303999ZM86.6489 6.016H104.649C106.953 6.016 108.777 7.84 108.777 10.144V24.064C108.777 26.32 106.953 28.192 104.649 28.192H90.7289C88.4729 28.192 86.6489 26.32 86.6489 24.064V6.016ZM148.702 0.447997C143.278 0.447997 138.91 4.864 138.91 10.24V34.048H144.622V20.08H166.75V34.048H172.462V0.447997H148.702ZM148.702 6.16H162.622C164.926 6.16 166.75 7.984 166.75 10.24V14.368H144.622V10.24C144.622 7.984 146.446 6.16 148.702 6.16ZM188.84 0.351998C183.416 0.399998 179.048 4.768 179.048 10.192V20.032H202.76C205.064 20.032 206.888 21.856 206.888 24.16V28.24H179.048V33.952H212.6V24.16C212.6 18.736 208.184 14.368 202.76 14.368H184.76V10.192C184.76 7.936 186.584 6.112 188.84 6.064H212.6V0.351998H188.84ZM216.096 0.447997V6.16H230.016V34.048H235.728V10.24C235.728 7.984 237.552 6.16 239.808 6.16H249.648V0.447997H216.096ZM262.815 0.351998C257.391 0.399998 253.023 4.768 253.023 10.192V33.952H258.735V20.032H262.863C265.119 20.032 266.991 21.856 266.991 24.16C266.991 29.584 271.407 33.952 276.831 33.952H286.575V28.24H276.831C274.527 28.24 272.703 26.416 272.703 24.16C272.703 22.72 272.367 21.328 271.791 20.032H286.575V0.351998H262.815ZM258.639 10.192C258.639 7.936 260.511 6.064 262.767 6.064H280.815V14.32H258.639V10.192ZM302.962 0.447997C297.538 0.447997 293.17 4.816 293.17 10.24V34.048H316.882C322.306 34.048 326.722 29.632 326.722 24.208V0.447997H302.962ZM298.786 10.24C298.786 7.984 300.61 6.16 302.914 6.16H316.834C319.09 6.16 320.914 7.984 320.914 10.24V24.16C320.914 26.464 319.09 28.288 316.834 28.288H302.914C300.61 28.288 298.786 26.464 298.786 24.16V10.24ZM379.319 0.351998V28.24H371.111V0.351998H365.399V28.24H361.271C359.015 28.24 357.191 26.416 357.191 24.16V0.351998H351.479V24.16C351.479 29.584 355.847 34 361.271 34H385.031V0.351998H379.319ZM401.793 0.447997C396.369 0.447997 392.001 4.864 392.001 10.24V34.048H397.713V20.08H419.841V34.048H425.553V0.447997H401.793ZM401.793 6.16H415.713C418.017 6.16 419.841 7.984 419.841 10.24V14.368H397.713V10.24C397.713 7.984 399.537 6.16 401.793 6.16ZM442.315 0.351998C436.891 0.399998 432.523 4.768 432.523 10.192V33.952H438.235V20.032H442.363C444.619 20.032 446.491 21.856 446.491 24.16C446.491 29.584 450.907 33.952 456.331 33.952H466.075V28.24H456.331C454.027 28.24 452.203 26.416 452.203 24.16C452.203 22.72 451.867 21.328 451.291 20.032H466.075V0.351998H442.315ZM438.139 10.192C438.139 7.936 440.011 6.064 442.267 6.064H460.315V14.32H438.139V10.192ZM482.078 0.351998C476.654 0.399998 472.286 4.768 472.286 10.192V20.032H495.998C498.302 20.032 500.126 21.856 500.126 24.16V28.24H472.286V33.952H505.838V24.16C505.838 18.736 501.422 14.368 495.998 14.368H477.998V10.192C477.998 7.936 479.822 6.112 482.078 6.064H505.838V0.351998H482.078Z" fill="white"/>
</svg>
