<svg width="599" height="60" viewBox="0 0 599 60" fill="none" xmlns="http://www.w3.org/2000/svg">
    <rect width="530" height="60" rx="16" fill="#056289"/>
    <rect x="553" y="60" width="15" height="60" rx="7.5" transform="rotate(-180 553 60)" fill="#056289"/>
    <rect opacity="0.75" x="576" y="60" width="15" height="60" rx="7.5" transform="rotate(-180 576 60)" fill="#056289"/>
    <rect opacity="0.5" x="599" y="60" width="15" height="60" rx="7.5" transform="rotate(-180 599 60)" fill="#056289"/>
    <path d="M51.6601 13.352H27.9001V46.952H33.6121V19.064H41.8201V46.952H47.5321V19.064H51.6601C53.9161 19.064 55.7401 20.936 55.7401 23.192V46.952H61.4521V23.192C61.4521 17.768 57.0841 13.4 51.6601 13.352ZM78.054 13.448C72.63 13.448 68.262 17.864 68.262 23.24V47.048H73.974V33.08H96.102V47.048H101.814V13.448H78.054ZM78.054 19.16H91.974C94.278 19.16 96.102 20.984 96.102 23.24V27.368H73.974V23.24C73.974 20.984 75.798 19.16 78.054 19.16ZM118.752 13.352C113.328 13.4 108.96 17.768 108.96 23.192V46.952H114.672V33.032H118.8C121.056 33.032 122.928 34.856 122.928 37.16C122.928 42.584 127.344 46.952 132.768 46.952H142.512V41.24H132.768C130.464 41.24 128.64 39.416 128.64 37.16C128.64 35.72 128.304 34.328 127.728 33.032H142.512V13.352H118.752ZM114.576 23.192C114.576 20.936 116.448 19.064 118.704 19.064H136.752V27.32H114.576V23.192ZM146.691 13.448V19.16H160.611V47.048H166.323V23.24C166.323 20.984 168.147 19.16 170.403 19.16H180.243V13.448H146.691ZM182.912 13.448V19.16H196.832V41.336H182.912V47.048H216.464V41.336H202.544V23.24C202.544 20.984 204.368 19.16 206.624 19.16H216.464V13.448H182.912ZM231.517 13.448C226.093 13.448 221.725 17.864 221.725 23.24V47.048H227.437V33.08H249.565V47.048H255.277V13.448H231.517ZM231.517 19.16H245.437C247.741 19.16 249.565 20.984 249.565 23.24V27.368H227.437V23.24C227.437 20.984 229.261 19.16 231.517 19.16ZM290.599 13.352V41.24H286.519C284.215 41.24 282.391 39.416 282.391 37.16V23.192C282.391 17.768 277.975 13.4 272.551 13.352H262.759V46.952H268.471V19.064H272.551C274.855 19.064 276.679 20.936 276.679 23.192V37.16C276.679 42.584 281.095 47 286.519 47H296.311V13.352H290.599ZM328.744 13.448V41.336H317.656C315.4 41.336 313.528 39.464 313.528 37.208V23.336C313.528 17.912 309.16 13.496 303.736 13.496H300.904V19.208H303.736C305.992 19.208 307.816 21.08 307.816 23.336V37.16C307.864 42.584 312.232 47 317.656 47H334.456V13.448H328.744ZM351.361 13.448C345.937 13.448 341.569 17.864 341.569 23.24V47.048H375.121V41.336H351.361C350.257 41.288 349.201 40.856 348.433 40.088C347.665 39.32 347.233 38.264 347.281 37.16V33.08H375.121V27.368H347.281V23.24C347.281 20.984 349.105 19.16 351.361 19.16H375.121V13.448H351.361ZM391.309 13.352C385.885 13.4 381.517 17.768 381.517 23.192V46.952H387.229V33.032H391.357C393.613 33.032 395.485 34.856 395.485 37.16C395.485 42.584 399.901 46.952 405.325 46.952H415.069V41.24H405.325C403.021 41.24 401.197 39.416 401.197 37.16C401.197 35.72 400.861 34.328 400.285 33.032H415.069V13.352H391.309ZM387.133 23.192C387.133 20.936 389.005 19.064 391.261 19.064H409.309V27.32H387.133V23.192ZM431.248 13.352C425.824 13.4 421.456 17.768 421.456 23.192V33.032H445.168C447.472 33.032 449.296 34.856 449.296 37.16V41.24H421.456V46.952H455.008V37.16C455.008 31.736 450.592 27.368 445.168 27.368H427.168V23.192C427.168 20.936 428.992 19.112 431.248 19.064H455.008V13.352H431.248ZM471.064 13.448C465.64 13.448 461.272 17.864 461.272 23.24V47.048H494.824V41.336H471.064C469.96 41.288 468.904 40.856 468.136 40.088C467.368 39.32 466.936 38.264 466.984 37.16V33.08H494.824V27.368H466.984V23.24C466.984 20.984 468.808 19.16 471.064 19.16H494.824V13.448H471.064Z" fill="white"/>
    </svg>
    