<svg width="347" height="60" viewBox="0 0 347 60" fill="none" xmlns="http://www.w3.org/2000/svg">
<rect width="295.074" height="60" rx="16" fill="#FF6666"/>
<rect x="312.383" y="60" width="10.715" height="60" rx="5.35748" transform="rotate(-180 312.383 60)" fill="#FF6666"/>
<rect opacity="0.75" x="329.691" y="60" width="10.715" height="60" rx="5.35748" transform="rotate(-180 329.691 60)" fill="#FF6666"/>
<rect opacity="0.5" x="347" y="60" width="10.715" height="60" rx="5.35748" transform="rotate(-180 347 60)" fill="#FF6666"/>
<path d="M41.9062 47.0625H34.3438V19.1562H41.9062V22.4531H38.4062V43.7656H41.9062V47.0625ZM50.0219 29.2969H51.5844C53.1156 29.2969 54.2458 29.0417 54.975 28.5312C55.7042 28.0208 56.0688 27.2188 56.0688 26.125C56.0688 25.0417 55.6938 24.2708 54.9438 23.8125C54.2042 23.3542 53.0531 23.125 51.4906 23.125H50.0219V29.2969ZM50.0219 33.2344V42H45.1781V19.1562H51.8344C54.9385 19.1562 57.2354 19.724 58.725 20.8594C60.2146 21.9844 60.9594 23.6979 60.9594 26C60.9594 27.3438 60.5896 28.5417 59.85 29.5938C59.1104 30.6354 58.0635 31.4531 56.7094 32.0469C60.1469 37.1823 62.3865 40.5 63.4281 42H58.0531L52.6 33.2344H50.0219ZM79.8875 42L78.2313 36.5625H69.9031L68.2469 42H63.0281L71.0906 19.0625H77.0125L85.1063 42H79.8875ZM77.075 32.5C75.5438 27.5729 74.6792 24.7865 74.4813 24.1406C74.2938 23.4948 74.1583 22.9844 74.075 22.6094C73.7313 23.9427 72.7469 27.2396 71.1219 32.5H77.075ZM109.847 42H104.331L101.237 30C101.123 29.5729 100.925 28.6927 100.644 27.3594C100.373 26.0156 100.217 25.1146 100.175 24.6562C100.112 25.2188 99.9562 26.125 99.7062 27.375C99.4562 28.6146 99.2635 29.5 99.1281 30.0312L96.05 42H90.55L84.7219 19.1562H89.4875L92.4094 31.625C92.9198 33.9271 93.2896 35.9219 93.5187 37.6094C93.5812 37.0156 93.7219 36.099 93.9406 34.8594C94.1698 33.6094 94.3833 32.6406 94.5812 31.9531L97.9094 19.1562H102.487L105.816 31.9531C105.961 32.526 106.144 33.401 106.362 34.5781C106.581 35.7552 106.748 36.7656 106.862 37.6094C106.967 36.7969 107.133 35.7865 107.362 34.5781C107.592 33.3594 107.8 32.375 107.987 31.625L110.894 19.1562H115.659L109.847 42ZM116.056 43.7656H119.541V22.4531H116.056V19.1562H123.619V47.0625H116.056V43.7656ZM145.053 42H140.209V23.1875H134.006V19.1562H151.256V23.1875H145.053V42ZM157.794 33.2344C157.794 34.9635 158.075 36.2708 158.637 37.1562C159.21 38.0417 160.137 38.4844 161.419 38.4844C162.69 38.4844 163.601 38.0469 164.153 37.1719C164.716 36.2865 164.997 34.974 164.997 33.2344C164.997 31.5052 164.716 30.2083 164.153 29.3438C163.591 28.4792 162.669 28.0469 161.387 28.0469C160.117 28.0469 159.2 28.4792 158.637 29.3438C158.075 30.1979 157.794 31.4948 157.794 33.2344ZM169.872 33.2344C169.872 36.0781 169.122 38.3021 167.622 39.9062C166.122 41.5104 164.033 42.3125 161.356 42.3125C159.679 42.3125 158.2 41.9479 156.919 41.2188C155.637 40.4792 154.653 39.4219 153.966 38.0469C153.278 36.6719 152.934 35.0677 152.934 33.2344C152.934 30.3802 153.679 28.1615 155.169 26.5781C156.658 24.9948 158.752 24.2031 161.45 24.2031C163.127 24.2031 164.606 24.5677 165.887 25.2969C167.169 26.026 168.153 27.0729 168.841 28.4375C169.528 29.8021 169.872 31.401 169.872 33.2344ZM177.988 32.5L180.066 29.8438L184.956 24.5312H190.331L183.394 32.1094L190.753 42H185.253L180.222 34.9219L178.175 36.5625V42H173.409V17.6875H178.175V28.5312L177.925 32.5H177.988ZM200.087 27.5938C199.077 27.5938 198.285 27.9167 197.712 28.5625C197.14 29.1979 196.811 30.1042 196.728 31.2812H203.416C203.395 30.1042 203.087 29.1979 202.494 28.5625C201.9 27.9167 201.098 27.5938 200.087 27.5938ZM200.759 42.3125C197.947 42.3125 195.749 41.5365 194.166 39.9844C192.582 38.4323 191.791 36.2344 191.791 33.3906C191.791 30.4635 192.52 28.2031 193.978 26.6094C195.447 25.0052 197.473 24.2031 200.056 24.2031C202.525 24.2031 204.447 24.9062 205.822 26.3125C207.197 27.7188 207.884 29.6615 207.884 32.1406V34.4531H196.619C196.671 35.8073 197.072 36.8646 197.822 37.625C198.572 38.3854 199.624 38.7656 200.978 38.7656C202.03 38.7656 203.025 38.6562 203.962 38.4375C204.9 38.2188 205.879 37.8698 206.9 37.3906V41.0781C206.067 41.4948 205.176 41.8021 204.228 42C203.28 42.2083 202.124 42.3125 200.759 42.3125ZM227.484 42H222.719V31.7969C222.719 30.5365 222.495 29.5938 222.047 28.9688C221.599 28.3333 220.885 28.0156 219.906 28.0156C218.573 28.0156 217.609 28.4635 217.016 29.3594C216.422 30.2448 216.125 31.7188 216.125 33.7812V42H211.359V24.5312H215L215.641 26.7656H215.906C216.438 25.9219 217.167 25.2865 218.094 24.8594C219.031 24.4219 220.094 24.2031 221.281 24.2031C223.312 24.2031 224.854 24.7552 225.906 25.8594C226.958 26.9531 227.484 28.5365 227.484 30.6094V42Z" fill="white"/>
</svg>
