<svg width="574" height="60" viewBox="0 0 574 60" fill="none" xmlns="http://www.w3.org/2000/svg">
    <rect width="505" height="60" rx="16" fill="#F06536"/>
    <rect x="528" y="60" width="15" height="60" rx="7.5" transform="rotate(-180 528 60)" fill="#F06536"/>
    <rect opacity="0.75" x="551" y="60" width="15" height="60" rx="7.5" transform="rotate(-180 551 60)" fill="#F06536"/>
    <rect opacity="0.5" x="574" y="60" width="15" height="60" rx="7.5" transform="rotate(-180 574 60)" fill="#F06536"/>
    <path d="M37.296 13.352C31.872 13.4 27.504 17.768 27.504 23.192V46.952H33.216V33.032H37.344C39.6 33.032 41.472 34.856 41.472 37.16C41.472 42.584 45.888 46.952 51.312 46.952H61.056V41.24H51.312C49.008 41.24 47.184 39.416 47.184 37.16C47.184 35.72 46.848 34.328 46.272 33.032H61.056V13.352H37.296ZM33.12 23.192C33.12 20.936 34.992 19.064 37.248 19.064H55.296V27.32H33.12V23.192ZM77.6189 13.448C72.1949 13.448 67.8269 17.816 67.8269 23.24V47.048H91.5389C96.9629 47.048 101.379 42.632 101.379 37.208V13.448H77.6189ZM73.4429 23.24C73.4429 20.984 75.2669 19.16 77.5709 19.16H91.4909C93.7469 19.16 95.5709 20.984 95.5709 23.24V37.16C95.5709 39.464 93.7469 41.288 91.4909 41.288H77.5709C75.2669 41.288 73.4429 39.464 73.4429 37.16V23.24ZM133.445 13.448V41.336H122.357C120.101 41.336 118.229 39.464 118.229 37.208V23.336C118.229 17.912 113.861 13.496 108.437 13.496H105.605V19.208H108.437C110.693 19.208 112.517 21.08 112.517 23.336V37.16C112.565 42.584 116.933 47 122.357 47H139.157V13.448H133.445ZM156.062 13.448C150.638 13.448 146.27 17.864 146.27 23.24V47.048H179.822V41.336H156.062C154.958 41.288 153.902 40.856 153.134 40.088C152.366 39.32 151.934 38.264 151.982 37.16V33.08H179.822V27.368H151.982V23.24C151.982 20.984 153.806 19.16 156.062 19.16H179.822V13.448H156.062ZM196.009 13.352C190.585 13.4 186.217 17.768 186.217 23.192V46.952H191.929V33.032H196.057C198.313 33.032 200.185 34.856 200.185 37.16C200.185 42.584 204.601 46.952 210.025 46.952H219.769V41.24H210.025C207.721 41.24 205.897 39.416 205.897 37.16C205.897 35.72 205.561 34.328 204.985 33.032H219.769V13.352H196.009ZM191.833 23.192C191.833 20.936 193.705 19.064 195.961 19.064H214.009V27.32H191.833V23.192ZM254.624 13.352C249.2 13.4 244.832 17.768 244.832 23.192V46.952H250.544V33.032H254.672C256.928 33.032 258.8 34.856 258.8 37.16C258.8 42.584 263.216 46.952 268.64 46.952H278.384V41.24H268.64C266.336 41.24 264.512 39.416 264.512 37.16C264.512 35.72 264.176 34.328 263.6 33.032H278.384V13.352H254.624ZM250.448 23.192C250.448 20.936 252.32 19.064 254.576 19.064H272.624V27.32H250.448V23.192ZM294.947 13.448C289.523 13.448 285.155 17.864 285.155 23.24V47.048H290.867V33.08H312.995V47.048H318.707V13.448H294.947ZM294.947 19.16H308.867C311.171 19.16 312.995 20.984 312.995 23.24V27.368H290.867V23.24C290.867 20.984 292.691 19.16 294.947 19.16ZM335.645 13.448C330.221 13.448 325.853 17.864 325.853 23.24V47.048H359.405V41.336H335.645C334.541 41.288 333.485 40.856 332.717 40.088C331.949 39.32 331.517 38.264 331.565 37.16V23.24C331.565 20.984 333.389 19.16 335.645 19.16H359.405V13.448H335.645ZM363.092 13.448V19.16H377.012V41.336H363.092V47.048H396.644V41.336H382.724V23.24C382.724 20.984 384.548 19.16 386.804 19.16H396.644V13.448H363.092ZM430.081 13.352V41.24H426.001C423.697 41.24 421.873 39.416 421.873 37.16V23.192C421.873 17.768 417.457 13.4 412.033 13.352H402.241V46.952H407.953V19.064H412.033C414.337 19.064 416.161 20.936 416.161 23.192V37.16C416.161 42.584 420.577 47 426.001 47H435.793V13.352H430.081ZM452.77 13.448C447.346 13.448 442.978 17.816 442.978 23.24V47.048H476.53V27.368H456.802V33.08H470.818V41.336H452.722C450.466 41.288 448.642 39.416 448.69 37.16V23.24C448.69 20.984 450.514 19.16 452.77 19.16H476.53V13.448H452.77Z" fill="white"/>
    </svg>
    