<svg width="324" height="107" viewBox="0 0 324 107" fill="none" xmlns="http://www.w3.org/2000/svg">
    <path d="M8.864 8.568C5.248 8.6 2.336 11.512 2.336 15.128V30.968H6.144V21.688H8.896C10.4 21.688 11.648 22.904 11.648 24.44C11.648 28.056 14.592 30.968 18.208 30.968H24.704V27.16H18.208C16.672 27.16 15.456 25.944 15.456 24.44C15.456 23.48 15.232 22.552 14.848 21.688H24.704V8.568H8.864ZM6.08 15.128C6.08 13.624 7.328 12.376 8.832 12.376H20.864V17.88H6.08V15.128ZM35.7032 8.632C32.0872 8.632 29.1752 11.544 29.1752 15.16V31.032H44.9832C48.5993 31.032 51.5433 28.088 51.5433 24.472V8.632H35.7032ZM32.9192 15.16C32.9192 13.656 34.1352 12.44 35.6712 12.44H44.9513C46.4552 12.44 47.6712 13.656 47.6712 15.16V24.44C47.6712 25.976 46.4552 27.192 44.9513 27.192H35.6712C34.1352 27.192 32.9192 25.976 32.9192 24.44V15.16ZM72.9082 8.632V27.224H65.5162C64.0122 27.224 62.7642 25.976 62.7642 24.472V15.224C62.7642 11.608 59.8522 8.664 56.2362 8.664H54.3482V12.472H56.2362C57.7402 12.472 58.9562 13.72 58.9562 15.224V24.44C58.9882 28.056 61.9002 31 65.5162 31H76.7162V8.632H72.9082ZM87.974 8.632C84.358 8.632 81.446 11.576 81.446 15.16V31.032H103.814V27.224H87.974C87.238 27.192 86.534 26.904 86.022 26.392C85.51 25.88 85.222 25.176 85.254 24.44V21.72H103.814V17.912H85.254V15.16C85.254 13.656 86.47 12.44 87.974 12.44H103.814V8.632H87.974ZM114.562 8.568C110.946 8.6 108.034 11.512 108.034 15.128V30.968H111.842V21.688H114.594C116.098 21.688 117.346 22.904 117.346 24.44C117.346 28.056 120.29 30.968 123.906 30.968H130.402V27.16H123.906C122.37 27.16 121.154 25.944 121.154 24.44C121.154 23.48 120.93 22.552 120.546 21.688H130.402V8.568H114.562ZM111.778 15.128C111.778 13.624 113.026 12.376 114.53 12.376H126.562V17.88H111.778V15.128Z" fill="white"/>
    <rect y="47" width="271" height="60" rx="16" fill="#77321F"/>
    <rect x="288.715" y="107" width="10.715" height="60" rx="5.35748" transform="rotate(-180 288.715 107)" fill="#77321F"/>
    <rect opacity="0.75" x="306.023" y="107" width="10.715" height="60" rx="5.35748" transform="rotate(-180 306.023 107)" fill="#77321F"/>
    <rect opacity="0.5" x="323.332" y="107" width="10.715" height="60" rx="5.35748" transform="rotate(-180 323.332 107)" fill="#77321F"/>
    <path d="M27.296 60.352C21.872 60.4 17.504 64.768 17.504 70.192V93.952H23.216V80.032H27.344C29.6 80.032 31.472 81.856 31.472 84.16C31.472 89.584 35.888 93.952 41.312 93.952H51.056V88.24H41.312C39.008 88.24 37.184 86.416 37.184 84.16C37.184 82.72 36.848 81.328 36.272 80.032H51.056V60.352H27.296ZM23.12 70.192C23.12 67.936 24.992 66.064 27.248 66.064H45.296V74.32H23.12V70.192ZM67.6669 60.448C62.2429 60.448 57.8749 64.864 57.8749 70.24V94.048H63.5869V80.08H85.7149V94.048H91.4269V60.448H67.6669ZM67.6669 66.16H81.5869C83.8909 66.16 85.7149 67.984 85.7149 70.24V74.368H63.5869V70.24C63.5869 67.984 65.4109 66.16 67.6669 66.16ZM108.505 60.448C103.081 60.448 98.7134 64.864 98.7134 70.24V94.048H132.265V88.336H108.505C107.401 88.288 106.345 87.856 105.577 87.088C104.809 86.32 104.377 85.264 104.425 84.16V70.24C104.425 67.984 106.249 66.16 108.505 66.16H132.265V60.448H108.505ZM135.951 60.448V66.16H149.871V88.336H135.951V94.048H169.503V88.336H155.583V70.24C155.583 67.984 157.407 66.16 159.663 66.16H169.503V60.448H135.951ZM202.94 60.352V88.24H198.86C196.556 88.24 194.732 86.416 194.732 84.16V70.192C194.732 64.768 190.316 60.4 184.892 60.352H175.1V93.952H180.812V66.064H184.892C187.196 66.064 189.02 67.936 189.02 70.192V84.16C189.02 89.584 193.436 94 198.86 94H208.652V60.352H202.94ZM225.677 60.448C220.253 60.448 215.885 64.816 215.885 70.24V94.048H249.437V74.368H229.709V80.08H243.725V88.336H225.629C223.373 88.288 221.549 86.416 221.597 84.16V70.24C221.597 67.984 223.421 66.16 225.677 66.16H249.437V60.448H225.677Z" fill="white"/>
    </svg>
    