<svg width="1200" height="1689" viewBox="0 0 1200 1689" fill="none" xmlns="http://www.w3.org/2000/svg">
    <path fill-rule="evenodd" clip-rule="evenodd" d="M1153.62 0C1159.98 0 1166.08 2.52763 1170.58 7.02703L1192.97 29.4048C1197.47 33.9058 1200 40.0114 1200 46.3777V1587.93C1200 1594.29 1197.47 1600.4 1192.97 1604.9L1115.87 1681.97C1111.37 1686.47 1105.27 1689 1098.91 1689H598.831C598.085 1689 597.398 1688.59 597.044 1687.93C596.69 1687.27 596.003 1686.86 595.256 1686.86L217.609 1686.86C216.821 1686.86 216.087 1687.27 215.663 1687.93C215.239 1688.6 214.505 1689 213.716 1689H24C10.7452 1689 0 1678.25 0 1665V1278.46C0 1269.63 4.84887 1261.52 12.6241 1257.33L19.888 1253.42C27.6632 1249.24 32.5121 1241.12 32.5121 1232.29L32.5121 491.448C32.5121 483.248 28.3249 475.615 21.4089 471.208L11.1032 464.641C4.18719 460.235 0 452.602 0 444.401V24C0 10.7452 10.7452 0 24 0H67.1144C75.9426 0 84.058 4.84666 88.2444 12.6191L90.1081 16.0794C94.2945 23.8518 102.41 28.6985 111.238 28.6985H389.09C397.289 28.6985 404.92 24.5135 409.327 17.6005L413.473 11.098C417.88 4.18498 425.511 0 433.71 0H1153.62Z" fill="url(#paint0_linear_1310_265)"/>
    <defs>
    <linearGradient id="paint0_linear_1310_265" x1="256" y1="-103.5" x2="1220" y2="2708.5" gradientUnits="userSpaceOnUse">
    <stop stop-color="#450A0A"/>
    <stop offset="0.0001" stop-color="#450A0A"/>
    <stop offset="0.211458" stop-color="#1B0000" stop-opacity="0.961856"/>
    <stop offset="1" stop-color="#610505" stop-opacity="0.53"/>
    </linearGradient>
    </defs>
    </svg>
    